<svg width="40" height="40" viewBox="0 0 40 40" fill="none" xmlns="http://www.w3.org/2000/svg">
<g opacity="0.6">
<path d="M31.6666 28.3333H35C36 28.3333 36.6666 27.6667 36.6666 26.6667V21.6667C36.6666 20.1667 35.5 18.8333 34.1666 18.5C31.1666 17.6667 26.6666 16.6667 26.6666 16.6667C26.6666 16.6667 24.5 14.3333 23 12.8333C22.1666 12.1667 21.1666 11.6667 20 11.6667H8.33331C7.33331 11.6667 6.49998 12.3333 5.99998 13.1667L3.66665 18C3.44595 18.6437 3.33331 19.3195 3.33331 20V26.6667C3.33331 27.6667 3.99998 28.3333 4.99998 28.3333H8.33331" stroke="black" stroke-width="2" stroke-linecap="round" stroke-linejoin="round"/>
<path d="M11.6666 31.6667C13.5076 31.6667 15 30.1743 15 28.3333C15 26.4924 13.5076 25 11.6666 25C9.8257 25 8.33331 26.4924 8.33331 28.3333C8.33331 30.1743 9.8257 31.6667 11.6666 31.6667Z" stroke="black" stroke-width="2" stroke-linecap="round" stroke-linejoin="round"/>
<path d="M15 28.3333H25" stroke="black" stroke-width="2" stroke-linecap="round" stroke-linejoin="round"/>
<path d="M28.3333 31.6667C30.1743 31.6667 31.6667 30.1743 31.6667 28.3333C31.6667 26.4924 30.1743 25 28.3333 25C26.4924 25 25 26.4924 25 28.3333C25 30.1743 26.4924 31.6667 28.3333 31.6667Z" stroke="black" stroke-width="2" stroke-linecap="round" stroke-linejoin="round"/>
</g>
</svg>
