<svg width="40" height="40" viewBox="0 0 40 40" fill="none" xmlns="http://www.w3.org/2000/svg">
<path d="M33.3333 21.6667C33.3333 30 27.5 34.1667 20.5667 36.5833C20.2036 36.7064 19.8092 36.7005 19.45 36.5667C12.5 34.1667 6.66666 30 6.66666 21.6667V10C6.66666 9.55797 6.84225 9.13405 7.15481 8.82149C7.46737 8.50893 7.8913 8.33333 8.33332 8.33333C11.6667 8.33333 15.8333 6.33333 18.7333 3.8C19.0864 3.49833 19.5356 3.33258 20 3.33258C20.4644 3.33258 20.9136 3.49833 21.2667 3.8C24.1833 6.35 28.3333 8.33333 31.6667 8.33333C32.1087 8.33333 32.5326 8.50893 32.8452 8.82149C33.1577 9.13405 33.3333 9.55797 33.3333 10V21.6667Z" stroke="black" stroke-width="2" stroke-linecap="round" stroke-linejoin="round"/>
</svg>
