<svg width="40" height="40" viewBox="0 0 40 40" fill="none" xmlns="http://www.w3.org/2000/svg">
<g opacity="0.6">
<path d="M25 21.6667C25 20.3406 24.4732 19.0688 23.5355 18.1311C22.5979 17.1935 21.3261 16.6667 20 16.6667C18.6739 16.6667 17.4021 17.1935 16.4645 18.1311C15.5268 19.0688 15 20.3406 15 21.6667" stroke="black" stroke-width="2" stroke-linecap="round" stroke-linejoin="round"/>
<path d="M6.66667 32.5V7.49999C6.66667 6.39493 7.10566 5.33512 7.88706 4.55372C8.66846 3.77232 9.72827 3.33333 10.8333 3.33333H31.6667C32.1087 3.33333 32.5326 3.50892 32.8452 3.82148C33.1577 4.13404 33.3333 4.55797 33.3333 4.99999V35C33.3333 35.442 33.1577 35.8659 32.8452 36.1785C32.5326 36.4911 32.1087 36.6667 31.6667 36.6667H10.8333C9.72827 36.6667 8.66846 36.2277 7.88706 35.4463C7.10566 34.6649 6.66667 33.6051 6.66667 32.5ZM6.66667 32.5C6.66667 31.3949 7.10566 30.3351 7.88706 29.5537C8.66846 28.7723 9.72827 28.3333 10.8333 28.3333H33.3333" stroke="black" stroke-width="2" stroke-linecap="round" stroke-linejoin="round"/>
<path d="M20 16.6667C21.841 16.6667 23.3333 15.1743 23.3333 13.3333C23.3333 11.4924 21.841 10 20 10C18.1591 10 16.6667 11.4924 16.6667 13.3333C16.6667 15.1743 18.1591 16.6667 20 16.6667Z" stroke="black" stroke-width="2" stroke-linecap="round" stroke-linejoin="round"/>
</g>
</svg>
