<svg width="40" height="40" viewBox="0 0 40 40" fill="none" xmlns="http://www.w3.org/2000/svg">
<g opacity="0.6" clip-path="url(#clip0_37_63)">
<path d="M16.1093 26.0907C16.3847 26.2171 16.6949 26.246 16.9889 26.1726C17.2829 26.0992 17.5431 25.9278 17.7267 25.6867L18.2 25.0667C18.4484 24.7355 18.7705 24.4667 19.1408 24.2815C19.511 24.0964 19.9193 24 20.3333 24H24.3333C25.0406 24 25.7189 24.281 26.2189 24.7811C26.719 25.2812 27 25.9594 27 26.6667V30.6667C27 31.3739 26.719 32.0522 26.2189 32.5523C25.7189 33.0524 25.0406 33.3333 24.3333 33.3333C17.9681 33.3333 11.8636 30.8048 7.36277 26.3039C2.8619 21.803 0.333332 15.6985 0.333332 9.33334C0.333332 8.62609 0.614284 7.94782 1.11438 7.44772C1.61448 6.94762 2.29275 6.66667 3 6.66667H7C7.70724 6.66667 8.38552 6.94762 8.88562 7.44772C9.38571 7.94782 9.66666 8.62609 9.66666 9.33334V13.3333C9.66666 13.7473 9.57028 14.1556 9.38514 14.5259C9.2 14.8962 8.93119 15.2183 8.6 15.4667L7.976 15.9347C7.73122 16.1216 7.55869 16.3875 7.48772 16.6871C7.41675 16.9868 7.45171 17.3018 7.58667 17.5787C9.40891 21.2798 12.4059 24.2731 16.1093 26.0907Z" stroke="black" stroke-width="2" stroke-linecap="round" stroke-linejoin="round"/>
</g>
<defs>
<clipPath id="clip0_37_63">
<rect width="40" height="40" fill="white"/>
</clipPath>
</defs>
</svg>
