<svg width="24" height="24" viewBox="0 0 24 24" fill="none" xmlns="http://www.w3.org/2000/svg">
<path d="M9.67082 4.136C9.72591 3.55634 9.99515 3.01804 10.4259 2.62628C10.8567 2.23451 11.418 2.01743 12.0003 2.01743C12.5826 2.01743 13.1439 2.23451 13.5747 2.62628C14.0055 3.01804 14.2747 3.55634 14.3298 4.136C14.3629 4.51045 14.4858 4.87142 14.688 5.18834C14.8901 5.50526 15.1657 5.76881 15.4913 5.95668C15.8169 6.14454 16.183 6.2512 16.5585 6.26762C16.9341 6.28404 17.3081 6.20973 17.6488 6.051C18.1779 5.81078 18.7775 5.77602 19.3308 5.95348C19.8841 6.13095 20.3516 6.50795 20.6423 7.0111C20.933 7.51426 21.0261 8.10757 20.9035 8.67557C20.7808 9.24357 20.4512 9.74561 19.9788 10.084C19.6712 10.2998 19.4201 10.5866 19.2467 10.92C19.0734 11.2534 18.9829 11.6237 18.9829 11.9995C18.9829 12.3753 19.0734 12.7456 19.2467 13.079C19.4201 13.4124 19.6712 13.6992 19.9788 13.915C20.4512 14.2534 20.7808 14.7554 20.9035 15.3234C21.0261 15.8914 20.933 16.4847 20.6423 16.9879C20.3516 17.491 19.8841 17.868 19.3308 18.0455C18.7775 18.223 18.1779 18.1882 17.6488 17.948C17.3081 17.7893 16.9341 17.715 16.5585 17.7314C16.183 17.7478 15.8169 17.8545 15.4913 18.0423C15.1657 18.2302 14.8901 18.4937 14.688 18.8107C14.4858 19.1276 14.3629 19.4885 14.3298 19.863C14.2747 20.4427 14.0055 20.981 13.5747 21.3727C13.1439 21.7645 12.5826 21.9816 12.0003 21.9816C11.418 21.9816 10.8567 21.7645 10.4259 21.3727C9.99515 20.981 9.72591 20.4427 9.67082 19.863C9.63776 19.4884 9.51491 19.1273 9.31268 18.8103C9.11045 18.4932 8.83479 18.2296 8.50905 18.0417C8.18331 17.8538 7.81708 17.7472 7.4414 17.7309C7.06571 17.7146 6.69162 17.7891 6.35082 17.948C5.82171 18.1882 5.22214 18.223 4.66882 18.0455C4.11549 17.868 3.64799 17.491 3.3573 16.9879C3.06661 16.4847 2.97353 15.8914 3.09618 15.3234C3.21882 14.7554 3.54842 14.2534 4.02082 13.915C4.32844 13.6992 4.57955 13.4124 4.7529 13.079C4.92626 12.7456 5.01677 12.3753 5.01677 11.9995C5.01677 11.6237 4.92626 11.2534 4.7529 10.92C4.57955 10.5866 4.32844 10.2998 4.02082 10.084C3.54908 9.74544 3.22007 9.24359 3.09772 8.67598C2.97537 8.10837 3.06842 7.51554 3.3588 7.01271C3.64918 6.50988 4.11613 6.13298 4.66891 5.95524C5.22168 5.7775 5.8208 5.81163 6.34982 6.051C6.69057 6.20973 7.06456 6.28404 7.44012 6.26762C7.81567 6.2512 8.18175 6.14454 8.50735 5.95668C8.83296 5.76881 9.10851 5.50526 9.31068 5.18834C9.51286 4.87142 9.6357 4.51045 9.66882 4.136" stroke="white" stroke-width="2" stroke-linecap="round" stroke-linejoin="round"/>
<path d="M12 15C13.6569 15 15 13.6569 15 12C15 10.3431 13.6569 9 12 9C10.3431 9 9 10.3431 9 12C9 13.6569 10.3431 15 12 15Z" stroke="white" stroke-width="2" stroke-linecap="round" stroke-linejoin="round"/>
</svg>
