<svg width="50" height="52" viewBox="0 0 50 52" fill="none" xmlns="http://www.w3.org/2000/svg">
<path d="M45 28.5011C45 41.0011 36.25 47.2511 25.85 50.8761C25.3054 51.0607 24.7138 51.0518 24.175 50.8511C13.75 47.2511 5 41.0011 5 28.5011V11.0011C5 10.3381 5.26339 9.7022 5.73223 9.23336C6.20107 8.76452 6.83696 8.50112 7.5 8.50112C12.5 8.50112 18.75 5.50112 23.1 1.70112C23.6296 1.24862 24.3034 1 25 1C25.6966 1 26.3704 1.24862 26.9 1.70112C31.275 5.52612 37.5 8.50112 42.5 8.50112C43.163 8.50112 43.7989 8.76452 44.2678 9.23336C44.7366 9.7022 45 10.3381 45 11.0011V28.5011Z" stroke="black" stroke-width="2" stroke-linecap="round" stroke-linejoin="round"/>
<path d="M13 40.1485C13.889 37.7572 15.4884 35.6951 17.5834 34.2393C19.6784 32.7835 22.1687 32.0035 24.7199 32.0042C27.2711 32.0049 29.761 32.7862 31.8552 34.2431C33.9494 35.7001 35.5477 37.7629 36.4354 40.1547" stroke="black" stroke-width="2" stroke-linecap="round" stroke-linejoin="round"/>
<path d="M25.3333 31.6709C29.9357 31.6709 33.6667 27.9399 33.6667 23.3375C33.6667 18.7352 29.9357 15.0042 25.3333 15.0042C20.731 15.0042 17 18.7352 17 23.3375C17 27.9399 20.731 31.6709 25.3333 31.6709Z" stroke="black" stroke-width="2" stroke-linecap="round" stroke-linejoin="round"/>
</svg>
